<?xml version="1.0" encoding="UTF-8"?><svg id="Vrstva_2" xmlns="http://www.w3.org/2000/svg" viewBox="0 0 404.27 465.38"><defs><style>.cls-1{fill:#003750;}.cls-2{fill:none;stroke:#FFF9C8;stroke-miterlimit:10;stroke-width:2px;}</style></defs><g id="_Vrstva_"><g><path class="cls-1" d="m.13,289.92c3.9-12.17,83.51-20.69,127.58-77.42,44.31-56.97,52.59-162.15,96.66-197.94,44.31-35.55,123.93-1.7,158.5,55.27,34.33,56.73,23.13,136.59-3.9,189.42-26.78,53.08-69.39,79.13-103.96,96.17-34.09,17.04-60.14,25.08-81.32,19.96-20.94-4.87-37.01-22.89-81.32-39.93C68.55,318.41-3.52,302.34.13,289.92Z"/><path class="cls-2" d="m379.24,410.7c-19.45,12.97-63.79-1.19-104.98,10.74-41.48,11.74-79.91,49.08-87.94,42.07-7.78-7.07,14.84-58.49,4.82-103.6-10.21-44.81-53.26-83.01-55.72-123.25-2.23-40.29,36.13-82.62,68.98-72.98,33.04,9.35,60.59,70.67,90.29,105,29.94,34.28,62.04,41.59,80.69,65.31,18.6,23.49,23.55,63.68,3.86,76.7Z"/></g></g></svg>