<!DOCTYPE svg PUBLIC "-//W3C//DTD SVG 1.1//EN" "http://www.w3.org/Graphics/SVG/1.1/DTD/svg11.dtd">

<!-- Uploaded to: SVG Repo, www.svgrepo.com, Transformed by: SVG Repo Mixer Tools -->
<svg fill="#000000" height="800px" width="800px" version="1.1" id="Capa_1" xmlns="http://www.w3.org/2000/svg" xmlns:xlink="http://www.w3.org/1999/xlink" viewBox="-39.77 -39.77 477.24 477.24" xml:space="preserve">

<g id="SVGRepo_bgCarrier" stroke-width="0">

<path transform="translate(-39.77, -39.77), scale(14.913750000000002)" d="M16,28.218262907117605C18.100805854898613,28.47161453317918,20.253935351444806,27.561018808584194,21.92612237809226,26.264345050726696C23.514828937326815,25.03240503955123,23.655090625844515,22.679504695143393,25.03192514364597,21.21458441298455C26.974749823284636,19.14746360719149,30.970271555592962,18.771993344361533,31.573271605651826,16C32.1345657024123,13.419729069180697,29.596470565097842,11.04584744799972,27.626469551092544,9.287454674951736C25.908228227881214,7.753778751128538,23.397848712666157,7.768806463867976,21.296150254318494,6.826798675001545C19.449428410662243,5.999074624634374,18.01162781648247,4.29737216250087,16,4.076324205379933C13.910164296031823,3.8466823654254956,11.812686142418737,4.542590212660281,9.98632983840071,5.584017740149081C8.154544938051764,6.628540769672289,6.831814491390437,8.282764114092728,5.609646468445884,10.001126591581846C4.288583247396392,11.858535251295525,2.6872678891098887,13.723324752002208,2.5780672556720674,15.999999999999998C2.4676906128041423,18.301193343512786,3.452474498924208,20.650177439131163,5.017784866411398,22.34058486367575C6.486887118479303,23.92709537679358,8.939016032291248,23.907745440746258,10.845394512871277,24.92803859668026C12.67373439562127,25.906565519898265,13.941190814500363,27.96997596823623,16,28.218262907117605" fill="#EDF2F4" strokewidth="0"/>

</g>

<g id="SVGRepo_tracerCarrier" stroke-linecap="round" stroke-linejoin="round"/>

<g id="SVGRepo_iconCarrier"> <path d="M290.897,210.108h-32.931c2.67-2.362,5.269-4.86,7.773-7.484c17.084-17.9,37.562-49.608,38.1-99.023 c0.33-33.099-8.348-58.815-25.795-76.438C260.199,9.139,233.554,0,198.848,0c-34.712,0-61.361,9.141-79.206,27.168 c-17.445,17.623-26.12,43.339-25.784,76.445c0.537,49.402,21.014,81.11,38.098,99.011c2.505,2.624,5.103,5.122,7.774,7.484h-32.931 c-35.841,0-65,29.159-65,65v107.587c0,8.284,6.716,15,15,15h284.098c8.284,0,15-6.716,15-15V275.108 C355.897,239.268,326.738,210.108,290.897,210.108z M220.04,348.776l-17.467,29.456c-0.78,1.315-2.196,2.122-3.726,2.122 c-1.53,0-2.945-0.807-3.726-2.122l-17.466-29.456c-0.481-0.811-0.684-1.756-0.579-2.693l8.664-77.104 c0.246-2.191,2.1-3.848,4.305-3.848h17.607c2.205,0,4.058,1.657,4.305,3.848l8.663,77.104 C220.724,347.02,220.521,347.965,220.04,348.776z M206.93,251.133c-2.159,2.159-5.029,3.348-8.083,3.348 c-3.053,0-5.923-1.188-8.083-3.348l-22.015-22.015c10.273,4.623,20.596,7.158,30.098,7.158c9.502,0,19.825-2.535,30.099-7.159 L206.93,251.133z M198.848,206.276c-21.026,0-74.206-30.636-74.992-102.979c-0.251-24.791,5.504-43.304,17.107-55.025 C152.965,36.147,172.44,30,198.848,30c26.402,0,45.875,6.146,57.878,18.27c11.604,11.722,17.363,30.236,17.115,55.018 C273.053,175.641,219.873,206.276,198.848,206.276z"/> </g>

</svg>