<!DOCTYPE svg PUBLIC "-//W3C//DTD SVG 1.1//EN" "http://www.w3.org/Graphics/SVG/1.1/DTD/svg11.dtd">

<!-- Uploaded to: SVG Repo, www.svgrepo.com, Transformed by: SVG Repo Mixer Tools -->
<svg width="800px" height="800px" viewBox="-102.4 -102.4 1228.80 1228.80" class="icon" xmlns="http://www.w3.org/2000/svg" fill="#000000">

<g id="SVGRepo_bgCarrier" stroke-width="0">

<path transform="translate(-102.4, -102.4), scale(38.4)" d="M16,26.590644658926657C18.423430644369837,26.780168445210688,20.857208150557327,27.959558623560156,23.127299773073847,27.09029492420388C25.557615830544968,26.159678069021457,27.858985295837307,24.251066133448862,28.61384493114265,21.760549961781173C29.355960744909343,19.312079611808567,27.38568838407508,16.94714830089109,26.966603539887217,14.423240452115781C26.560044977617054,11.974771220810231,27.50694715193887,9.27385542154231,26.191044247050655,7.169409892166001C24.816798101861938,4.971659476263778,22.353837884560566,3.5355109854372353,19.819235512740477,2.9928783519471125C17.364891325087108,2.4674281808099487,15.02597582321619,3.8398748248430197,12.549568176500907,4.248908370051762C9.645030332593509,4.728657095211061,6.0951991777240355,3.533398812699161,4.003716755414027,5.605161396382551C1.9290557111789144,7.660261204739783,2.6200199557875283,11.157132603996128,2.6275882938339805,14.077337458289039C2.634216682429558,16.634867583680133,2.762285850212468,19.247030585939395,4.044807336039465,21.45975355011961C5.266045334004279,23.566744655289078,7.316909414859186,25.068396132014445,9.554840373308028,26.028864137807773C11.577538348492407,26.896959144587647,13.805587809569701,26.419031203445932,16,26.590644658926657" fill="#EDF2F4" strokewidth="0"/>

</g>

<g id="SVGRepo_tracerCarrier" stroke-linecap="round" stroke-linejoin="round"/>

<g id="SVGRepo_iconCarrier">

<path fill="#000000" d="M864 409.6a192 192 0 01-37.888 349.44A256.064 256.064 0 01576 960h-96a32 32 0 110-64h96a192.064 192.064 0 00181.12-128H736a32 32 0 01-32-32V416a32 32 0 0132-32h32c10.368 0 20.544.832 30.528 2.432a288 288 0 00-573.056 0A193.235 193.235 0 01256 384h32a32 32 0 0132 32v320a32 32 0 01-32 32h-32a192 192 0 01-96-358.4 352 352 0 01704 0zM256 448a128 128 0 100 256V448zm640 128a128 128 0 00-128-128v256a128 128 0 00128-128z"/>

</g>

</svg>