<!DOCTYPE svg PUBLIC "-//W3C//DTD SVG 1.1//EN" "http://www.w3.org/Graphics/SVG/1.1/DTD/svg11.dtd">

<!-- Uploaded to: SVG Repo, www.svgrepo.com, Transformed by: SVG Repo Mixer Tools -->
<svg width="800px" height="800px" viewBox="-6.4 -6.4 76.80 76.80" xmlns="http://www.w3.org/2000/svg" xmlns:xlink="http://www.w3.org/1999/xlink" aria-hidden="true" role="img" class="iconify iconify--emojione-monotone" preserveAspectRatio="xMidYMid meet" fill="#000000">

<g id="SVGRepo_bgCarrier" stroke-width="0">

<path transform="translate(-6.4, -6.4), scale(2.4)" d="M16,31.886301868905623C19.50950024788316,31.822364464247094,21.270707713643123,27.741410043130063,23.923275964263038,25.44259259552583C26.508485266447327,23.20215099777198,30.62183020472167,22.051905730306576,31.231859551702193,18.685787805327042C31.842209061580604,15.31790323407906,28.42202272352527,12.779834359948728,26.760394671978812,9.787483239546422C25.05392512301093,6.714379086042257,24.73624672425023,2.2746738903927466,21.440363624814815,1.052723787199005C18.143287401276282,-0.1696686672787311,14.715035187684096,2.3845274630564584,11.7075684839086,4.206641334983505C9.280645235419751,5.677025200454853,7.734798891982237,7.959014218936311,6.15295379259743,10.314805221433435C4.417006533933407,12.900095610714093,1.811886852829741,15.346587283772429,2.1486989750757104,18.442358088608962C2.4923912489554167,21.60136703469331,5.550498759258158,23.522614816470632,7.830716518331471,25.735772938199C10.352696876081726,28.183583586714754,12.486018859117635,31.95032090816985,16,31.886301868905623" fill="#EDF2F4" strokewidth="0"/>

</g>

<g id="SVGRepo_tracerCarrier" stroke-linecap="round" stroke-linejoin="round"/>

<g id="SVGRepo_iconCarrier">

<circle cx="12.109" cy="40.309" r="2.25" fill="#000000"/>

<circle cx="22.84" cy="40.309" r="2.25" fill="#000000"/>

<path d="M13.544 47.656c.701 1.285 2.118 2.432 3.932 2.432s3.23-1.146 3.931-2.432c.189-.346-.061-.719-.34-.504c-2.313 1.801-4.881 1.789-7.185 0c-.278-.214-.528.159-.338.504" fill="#000000"/>

<path d="M54.316 50.949c2.34-1.771 4.302-4.184 4.799-7.008C60.512 43.725 62 42.833 62 40.018c0-2.479-.914-3.221-1.687-3.405c-.081-10.169-2.563-14.505-13.695-14.61c-11.224-.107-14.181 4.416-14.288 14.737a1.776 1.776 0 0 0-.33.216v-.286c0-12.396-8.122-12.164-8.122-12.164S23.267 22 17.001 22C7.298 22 2 28.33 2 36.67V62h60v-7.225c0-1.906-3.288-3.18-7.684-3.826M5.893 36.711c6.02 0 15.828-7.83 15.828-7.83s3.707 6.912 7.285 7.83c0 0 1.735.318 1.735 3.063c0 3.299-2.313 3.869-2.313 3.869c-.029 4.979-6.826 9.984-10.95 9.984c-4.129 0-11.039-5.006-11.039-9.984c0 0-2.229-.57-2.229-3.869c0-2.614 1.683-3.063 1.683-3.063M31.5 61.021L2.999 61v-6.225c0-1.014 2.589-2.307 7.511-2.938c2.289 1.703 4.929 2.789 6.968 2.789c1.972 0 4.52-1.042 6.759-2.686c4.435.662 7.264 2.6 7.264 3.56v5.521zm.47-21.003c0-1.632.397-2.46 1.183-2.46c.052 0 .104.003.157.009c.104.598.226 1.029.371 1.314c.358.697 1.039 1.078 1.116 1.119l.838.451l-.134-.965a17.7 17.7 0 0 1-.103-2.735c.332-5.026.651-5.696 1.743-5.696c.496 0 1.177.139 2.04.313c1.681.341 3.982.808 7.317.808s5.637-.467 7.317-.808c.863-.175 1.544-.313 2.041-.313c1.093 0 1.412.672 1.74 5.695c.058 1.577-.099 2.725-.101 2.736l-.135.967l.841-.453c.077-.041.756-.422 1.115-1.119c.147-.287.268-.709.374-1.314c.879-.096 1.34.713 1.34 2.451c0 1.906-.754 2.85-2.372 2.971l-.396.029l-.051.404c-.749 5.939-8.599 9.705-11.713 9.705s-10.964-3.766-11.711-9.705l-.051-.404l-.396-.029c-1.616-.122-2.37-1.065-2.37-2.971m.03 3.008c.536.546 1.219.812 1.885.915c.509 2.896 2.557 5.36 4.975 7.143c-3.973.68-6.86 1.906-6.86 3.691V43.026M60.999 61l-28.499.001v-5.5c0-1.719 3.174-2.981 7.56-3.597c2.286 1.415 4.726 2.223 6.439 2.223c1.755 0 4.271-.852 6.604-2.331c4.884.579 7.896 1.808 7.896 2.979V61" fill="#000000"/>

<circle cx="41.009" cy="40.309" r="2.25" fill="#000000"/>

<circle cx="52.007" cy="40.309" r="2.25" fill="#000000"/>

<path d="M42.573 47.656c.701 1.285 2.119 2.432 3.934 2.432s3.232-1.146 3.934-2.432c.189-.346-.063-.719-.34-.504c-2.314 1.801-4.885 1.789-7.189 0c-.278-.214-.528.159-.339.504" fill="#000000"/>

<path d="M31.997 26c1.201-1.082 17.977-9.818 14.539-18.92c-3.195-8.459-13.578-4.664-14.539-.439c-1.32-4.502-11.443-7.859-14.533.443C14.024 16.336 30.798 24.641 31.997 26" fill="#000000"/>

</g>

</svg>