<svg xmlns="http://www.w3.org/2000/svg" width="114" height="17" viewBox="0 0 114 17" fill="none">
    <path fill-rule="evenodd" clip-rule="evenodd" d="M7.77605 0.722321C8.17667 -0.240774 9.54306 -0.240774 9.94368 0.722321L11.8055 5.19977L16.6379 5.58698C17.6788 5.67014 18.1009 6.96858 17.3077 7.6482L13.6262 10.8022L14.7502 15.5175C14.9925 16.5334 13.8882 17.3355 12.9975 16.7918L8.85986 14.2647L4.72222 16.7918C3.83156 17.3355 2.72718 16.5325 2.96951 15.5175L4.09357 10.8022L0.411991 7.6482C-0.381198 6.96858 0.0408822 5.67014 1.08178 5.58698L5.91424 5.19977L7.77605 0.722321Z" fill="#F8BB36"></path>
    <path fill-rule="evenodd" clip-rule="evenodd" d="M31.8932 0.722321C32.2939 -0.240774 33.6602 -0.240774 34.0609 0.722321L35.9227 5.19977L40.7551 5.58698C41.796 5.67014 42.2181 6.96858 41.4249 7.6482L37.7433 10.8022L38.8674 15.5175C39.1097 16.5334 38.0054 17.3355 37.1147 16.7918L32.9771 14.2647L28.8394 16.7918C27.9487 17.3355 26.8444 16.5325 27.0867 15.5175L28.2108 10.8022L24.5292 7.6482C23.736 6.96858 24.1581 5.67014 25.199 5.58698L30.0314 5.19977L31.8932 0.722321Z" fill="#F8BB36"></path>
    <path fill-rule="evenodd" clip-rule="evenodd" d="M55.8698 0.722321C56.2704 -0.240774 57.6368 -0.240774 58.0374 0.722321L59.8992 5.19977L64.7317 5.58698C65.7726 5.67014 66.1947 6.96858 65.4015 7.6482L61.7199 10.8022L62.844 15.5175C63.0863 16.5334 61.9819 17.3355 61.0913 16.7918L56.9536 14.2647L52.816 16.7918C51.9253 17.3355 50.8209 16.5325 51.0633 15.5175L52.1873 10.8022L48.5057 7.6482C47.7126 6.96858 48.1346 5.67014 49.1755 5.58698L54.008 5.19977L55.8698 0.722321Z" fill="#F8BB36"></path>
    <path fill-rule="evenodd" clip-rule="evenodd" d="M79.8464 0.722321C80.247 -0.240774 81.6134 -0.240774 82.014 0.722321L83.8758 5.19977L88.7083 5.58698C89.7492 5.67014 90.1712 6.96858 89.378 7.6482L85.6965 10.8022L86.8205 15.5175C87.0629 16.5334 85.9585 17.3355 85.0678 16.7918L80.9302 14.2647L76.7925 16.7918C75.9019 17.3355 74.7975 16.5325 75.0398 15.5175L76.1639 10.8022L72.4823 7.6482C71.6891 6.96858 72.1112 5.67014 73.1521 5.58698L77.9846 5.19977L79.8464 0.722321Z" fill="#F8BB36"></path>
    <mask id="mask0_7_53256" style="mask-type:alpha" maskUnits="userSpaceOnUse" x="96" y="0" width="18" height="17">
        <path fill-rule="evenodd" clip-rule="evenodd" d="M103.823 0.722321C104.224 -0.240774 105.59 -0.240774 105.991 0.722321L107.852 5.19977L112.685 5.58698C113.726 5.67014 114.148 6.96858 113.355 7.6482L109.673 10.8022L110.797 15.5175C111.039 16.5334 109.935 17.3355 109.044 16.7918L104.907 14.2647L100.769 16.7918C99.8784 17.3355 98.774 16.5325 99.0164 15.5175L100.14 10.8022L96.4589 7.6482C95.6657 6.96858 96.0878 5.67014 97.1287 5.58698L101.961 5.19977L103.823 0.722321Z" fill="#DF7550"></path>
    </mask>
    <g mask="url(#mask0_7_53256)">
        <rect x="104.992" y="-0.894531" width="8.94238" height="18.779" fill="#F8BB36"></rect>
    </g>
    <path fill-rule="evenodd" clip-rule="evenodd" d="M104.992 0.00300855C104.523 -0.0300751 104.036 0.209696 103.823 0.722321L101.961 5.19977L97.1287 5.58698C96.0878 5.67014 95.6657 6.96858 96.4589 7.6482L100.14 10.8022L99.0164 15.5175C98.774 16.5325 99.8784 17.3355 100.769 16.7918L104.907 14.2647L104.992 14.3169V0.00300855Z" fill="#F8BB36"></path>
</svg>