<svg width="100%" height="100%" id="svg" viewBox="0 0 1440 390" xmlns="http://www.w3.org/2000/svg" class="transition duration-300 ease-in-out delay-150"><path d="M 0,400 L 0,100 C 111.36842105263162,113.1866028708134 222.73684210526324,126.3732057416268 325,137 C 427.26315789473676,147.6267942583732 520.4210526315788,155.6937799043062 616,142 C 711.5789473684212,128.3062200956938 809.5789473684213,92.85167464114832 903,83 C 996.4210526315787,73.14832535885168 1085.2631578947369,88.89952153110048 1174,96 C 1262.7368421052631,103.10047846889952 1351.3684210526317,101.55023923444976 1440,100 L 1440,400 L 0,400 Z" stroke="none" stroke-width="0" fill="#32959d" fill-opacity="0.53" class="transition-all duration-300 ease-in-out delay-150 path-0" transform="rotate(-180 720 200)"></path><path d="M 0,400 L 0,233 C 93.60765550239233,231.25837320574163 187.21531100478467,229.51674641148327 283,245 C 378.78468899521533,260.48325358851673 476.7464114832537,293.19138755980856 569,278 C 661.2535885167463,262.80861244019144 747.799043062201,199.71770334928232 837,186 C 926.200956937799,172.28229665071768 1018.0574162679427,207.9377990430622 1119,224 C 1219.9425837320573,240.0622009569378 1329.9712918660287,236.5311004784689 1440,233 L 1440,400 L 0,400 Z" stroke="none" stroke-width="0" fill="#32959d" fill-opacity="1" class="transition-all duration-300 ease-in-out delay-150 path-1" transform="rotate(-180 720 200)"></path></svg>