<!DOCTYPE svg PUBLIC "-//W3C//DTD SVG 1.1//EN" "http://www.w3.org/Graphics/SVG/1.1/DTD/svg11.dtd">

<!-- Uploaded to: SVG Repo, www.svgrepo.com, Transformed by: SVG Repo Mixer Tools -->
<svg version="1.0" id="Layer_1" xmlns="http://www.w3.org/2000/svg" xmlns:xlink="http://www.w3.org/1999/xlink" width="800px" height="800px" viewBox="-6.4 -6.4 76.80 76.80" enable-background="new 0 0 64 64" xml:space="preserve" fill="#000000">

<g id="SVGRepo_bgCarrier" stroke-width="0">

<path transform="translate(-6.4, -6.4), scale(2.4)" d="M16,31.440962965216706C18.253825535620578,31.83893218735012,20.526409900302987,30.651510110610936,22.48785661713674,29.472173083377857C24.374112442004716,28.338045238859195,25.749750157188362,26.587155741754223,27.039256473211516,24.803513270434003C28.289844298084972,23.073702775639795,29.792312050691276,21.309391655229444,29.929245482036443,19.179259384453296C30.06457929456156,17.074010735127747,28.941466991996542,15.071498641588063,27.777993032156488,13.311749948997628C26.785244362436345,11.81022242546708,25.167187568639385,10.926543293513992,23.74411269936037,9.824276201753825C22.58517184072792,8.926598646381043,21.33073971234538,8.256416986456369,20.14266221502894,7.397673271720663C18.715416076872636,6.366058201751798,17.566870888423807,5.030674307662486,16,4.226823071127429C13.809304456369842,3.1029312848741197,11.53769340865739,1.1982596254165,9.138668374998566,1.7522980717060808C6.8781919619934815,2.2743396603365755,5.7029972593519345,4.856234191745775,4.552132084341574,6.870629977821729C3.485954472365404,8.736794438618784,3.2518621095333637,10.88628976362099,2.7291834126940433,12.971022714118853C2.1967169004399643,15.094794908863573,0.49757832298192417,17.34433356715789,1.4294466976823905,19.32563370950784C2.425166656297816,21.442692458689624,5.631362401261582,21.321660237790955,7.385070165327921,22.87017729024007C8.77212688329733,24.09494291225535,9.217262637404541,26.055482142305312,10.529049029713022,27.36054674939909C12.162326830783517,28.9854553962848,13.7312042744412,31.040350381939874,16,31.440962965216706" fill="#EDF2F4" strokewidth="0"/>

</g>

<g id="SVGRepo_tracerCarrier" stroke-linecap="round" stroke-linejoin="round"/>

<g id="SVGRepo_iconCarrier"> <g> <path fill="#231F20" d="M62.242,47.758l0.014-0.014c-5.847-4.753-12.84-8.137-20.491-9.722C44.374,35.479,46,31.932,46,28 c1.657,0,3-1.343,3-3v-2c0-0.886-0.391-1.673-1-2.222V12c0-6.627-5.373-12-12-12h-8c-6.627,0-12,5.373-12,12v8.778 c-0.609,0.549-1,1.336-1,2.222v2c0,1.657,1.343,3,3,3c0,3.932,1.626,7.479,4.236,10.022c-7.652,1.586-14.646,4.969-20.492,9.722 l0.014,0.014C0.672,48.844,0,50.344,0,52v8c0,2.211,1.789,4,4,4h56c2.211,0,4-1.789,4-4v-8C64,50.344,63.328,48.844,62.242,47.758z M20,28v-1c0-0.553-0.447-1-1-1h-1c-0.553,0-1-0.447-1-1v-2c0-0.553,0.447-1,1-1h1c0.553,0,1-0.447,1-1v-1v-1c0-2.209,1.791-4,4-4 c2.088,0,3.926-1.068,5-2.687C30.074,13.932,31.912,15,34,15h6c2.209,0,4,1.791,4,4v1v1c0,0.553,0.447,1,1,1h1c0.553,0,1,0.447,1,1 v2c0,0.553-0.447,1-1,1h-1c-0.553,0-1,0.447-1,1v1c0,6.627-5.373,12-12,12S20,34.627,20,28z M24.285,39.678 C26.498,41.143,29.147,42,32,42s5.502-0.857,7.715-2.322c1.66,0.281,3.297,0.63,4.892,1.084C41.355,43.983,36.911,46,31.973,46 c-4.932,0-9.371-2.011-12.621-5.226C20.96,40.315,22.61,39.961,24.285,39.678z"/> <path fill="#231F20" d="M24.537,21.862c0.475,0.255,1.073,0.068,1.345-0.396C25.91,21.419,26.18,21,26.998,21 c0.808,0,1.096,0.436,1.111,0.458C28.287,21.803,28.637,22,28.999,22c0.154,0,0.311-0.035,0.457-0.111 c0.491-0.253,0.684-0.856,0.431-1.347C29.592,19.969,28.651,19,26.998,19c-1.691,0-2.618,0.983-2.9,1.564 C23.864,21.047,24.063,21.609,24.537,21.862z"/> <path fill="#231F20" d="M34.539,21.862c0.475,0.255,1.073,0.068,1.345-0.396C35.912,21.419,36.182,21,37,21 c0.808,0,1.096,0.436,1.111,0.458C38.289,21.803,38.639,22,39.001,22c0.154,0,0.311-0.035,0.457-0.111 c0.491-0.253,0.684-0.856,0.431-1.347C39.594,19.969,38.653,19,37,19c-1.691,0-2.618,0.983-2.9,1.564 C33.866,21.047,34.065,21.609,34.539,21.862z"/> </g> </g>

</svg>