<!DOCTYPE svg PUBLIC "-//W3C//DTD SVG 1.1//EN" "http://www.w3.org/Graphics/SVG/1.1/DTD/svg11.dtd">

<!-- Uploaded to: SVG Repo, www.svgrepo.com, Transformed by: SVG Repo Mixer Tools -->
<svg width="800px" height="800px" viewBox="-2.4 -2.4 28.80 28.80" xmlns="http://www.w3.org/2000/svg" fill="#000000">

<g id="SVGRepo_bgCarrier" stroke-width="0">

<path transform="translate(-2.4, -2.4), scale(0.8999999999999999)" d="M16,28.991664074361324C18.29969798266005,28.84207662854817,20.689457277224083,28.72553019436102,22.624081700574607,27.47324605888247C24.522704910190196,26.2442655415502,25.59283947109247,24.14560856330872,26.60846090163974,22.124797757249326C27.579815449097314,20.19206602574238,27.94085449749854,18.11588357307512,28.390318965539336,16C28.948813324846803,13.37085103597882,31.275499392951804,10.243804490066701,29.574309856510784,8.162868550280113C27.747724913161335,5.928545934094249,23.776746462070214,8.264088416923093,21.128503037150953,7.11717217288326C18.935596361633696,6.167455744194001,18.317215161991786,2.8682512433078644,16,2.2840296453796327C13.662324704876479,1.6946495917895728,11.11554703589928,2.7318306481838373,9.124101832276214,4.090595025832643C7.189072926145509,5.410866526443206,6.535175862520404,7.85329159073255,5.11129263507479,9.713401871733362C3.442209166716974,11.893833005057777,0.5049054137082669,13.299470675913438,0.007652036380022764,15.999999999999996C-0.4945459999621642,18.72738323252355,0.9068607350736007,21.526994872790837,2.5207727031248943,23.78223550831898C4.0647402054835515,25.939737478800353,6.384314019792995,27.41221641541665,8.858974521514021,28.368618946881554C11.126331292011633,29.244903089102234,13.574327808972697,29.14944570924195,16,28.991664074361324" fill="#EDF2F4" strokewidth="0"/>

</g>

<g id="SVGRepo_tracerCarrier" stroke-linecap="round" stroke-linejoin="round"/>

<g id="SVGRepo_iconCarrier"> <g> <path fill="none" d="M0 0H24V24H0z"/> <path d="M11 2c4.068 0 7.426 3.036 7.934 6.965l2.25 3.539c.148.233.118.58-.225.728L19 14.07V17c0 1.105-.895 2-2 2h-1.999L15 22H6v-3.694c0-1.18-.436-2.297-1.244-3.305C3.657 13.631 3 11.892 3 10c0-4.418 3.582-8 8-8zm0 2c-3.314 0-6 2.686-6 6 0 1.385.468 2.693 1.316 3.75C7.41 15.114 8 16.667 8 18.306V20h5l.002-3H17v-4.248l1.55-.664-1.543-2.425-.057-.442C16.566 6.251 14.024 4 11 4zm-.53 3.763l.53.53.53-.53c.684-.684 1.792-.684 2.475 0 .684.683.684 1.791 0 2.474L11 13.243l-3.005-3.006c-.684-.683-.684-1.791 0-2.474.683-.684 1.791-.684 2.475 0z"/> </g> </g>

</svg>