<!DOCTYPE svg PUBLIC "-//W3C//DTD SVG 1.1//EN" "http://www.w3.org/Graphics/SVG/1.1/DTD/svg11.dtd">

<!-- Uploaded to: SVG Repo, www.svgrepo.com, Transformed by: SVG Repo Mixer Tools -->
<svg fill="#000000" width="800px" height="800px" viewBox="-6.4 -6.4 76.80 76.80" version="1.1" xmlns="http://www.w3.org/2000/svg" xmlns:xlink="http://www.w3.org/1999/xlink" xml:space="preserve" xmlns:serif="http://www.serif.com/" style="fill-rule:evenodd;clip-rule:evenodd;stroke-linejoin:round;stroke-miterlimit:2;">

<g id="SVGRepo_bgCarrier" stroke-width="0">

<path transform="translate(-6.4, -6.4), scale(2.4)" d="M16,30.26574520435598C18.591174734015574,30.682800288322674,20.86266542112328,28.215944501145323,22.56936227950758,26.22212723799298C24.028264174600068,24.51779189021788,23.47215283584485,21.83267982451976,24.779372147387488,20.009404916912544C26.59640822946752,17.475051067164205,31.026006455184547,16.85493844484057,31.49558239805289,13.77207159834942C31.93313389349643,10.899452122368917,28.847686484568076,8.705501650950156,26.81786416036682,6.626267345461331C24.88786670209248,4.649287943419653,22.702381459359593,2.972030893959233,20.085913386230263,2.084656921308822C17.392800993393656,1.1712890620300196,14.381751918488094,0.44529134223355293,11.746797281714203,1.5149217779249735C9.173816711656501,2.559394532699212,8.042527962845101,5.438578758022613,6.367580582776387,7.653461062652161C4.814060699352993,9.707772583497354,2.8380615424247573,11.512645888149436,2.284138584862454,14.027956845060043C1.7093503707459603,16.638014928286683,1.558247724883029,19.752617532010476,3.2469064365687945,21.824142681351347C4.927860853391518,23.886216755435697,8.443845254260586,22.837218431758785,10.662278497103141,24.30565678099164C12.932147485468985,25.808141780711484,13.312499456255447,29.833186276461934,16,30.26574520435598" fill="#EDF2F4" strokewidth="0"/>

</g>

<g id="SVGRepo_tracerCarrier" stroke-linecap="round" stroke-linejoin="round"/>

<g id="SVGRepo_iconCarrier"> <rect id="Icons" x="-640" y="-128" width="1280" height="800" style="fill:none;"/> <g id="Icons1" serif:id="Icons"> <g id="Strike"> </g> <g id="H1"> </g> <g id="H2"> </g> <g id="H3"> </g> <g id="list-ul"> </g> <g id="hamburger-1"> </g> <g id="hamburger-2"> </g> <g id="list-ol"> </g> <g id="list-task"> </g> <g id="trash"> </g> <g id="vertical-menu"> </g> <g id="horizontal-menu"> </g> <g id="sidebar-2"> </g> <g id="Pen"> </g> <g id="Pen1" serif:id="Pen"> </g> <g id="clock"> </g> <g id="external-link"> </g> <g id="hr"> </g> <g id="info"> </g> <g id="warning"> </g> <g id="plus-circle"> </g> <g id="minus-circle"> </g> <g id="vue"> </g> <g id="cog"> </g> <g id="logo"> </g> <g id="radio-check"> </g> <g id="eye-slash"> </g> <g id="eye"> </g> <g id="toggle-off"> </g> <g id="shredder"> </g> <path d="M39.94,44.142c-3.387,2.507 7.145,-8.263 4.148,-4.169c0.075,-0.006 -0.064,0.221 -0.53,0.79c0,0 8.004,7.95 11.933,11.996c1.364,1.475 -1.097,4.419 -2.769,2.882c-3.558,-3.452 -11.977,-12.031 -11.99,-12.045l-0.792,0.546Z"/> <path d="M28.179,48.162c5.15,-0.05 10.248,-2.183 13.914,-5.806c4.354,-4.303 6.596,-10.669 5.814,-16.747c-1.34,-10.415 -9.902,-17.483 -19.856,-17.483c-7.563,0 -14.913,4.731 -18.137,11.591c-2.468,5.252 -2.473,11.593 0,16.854c3.201,6.812 10.431,11.518 18.008,11.591c0.086,0 0.172,0 0.257,0Zm-0.236,-3.337c-7.691,-0.074 -14.867,-6.022 -16.294,-13.648c-1.006,-5.376 0.893,-11.194 4.849,-15.012c4.618,-4.459 11.877,-5.952 17.913,-3.425c5.4,2.261 9.442,7.511 10.187,13.295c0.638,4.958 -1.141,10.154 -4.637,13.733c-3.067,3.14 -7.368,5.014 -11.803,5.057c-0.072,0 -0.143,0 -0.215,0Z" style="fill-rule:nonzero;"/> <g id="spinner--loading--dots-" serif:id="spinner [loading, dots]"> </g> <g id="react"> </g> <g id="check-selected"> </g> <g id="turn-off"> </g> <g id="code-block"> </g> <g id="user"> </g> <g id="coffee-bean"> </g> <g id="coffee-beans"> <g id="coffee-bean1" serif:id="coffee-bean"> </g> </g> <g id="coffee-bean-filled"> </g> <g id="coffee-beans-filled"> <g id="coffee-bean2" serif:id="coffee-bean"> </g> </g> <g id="clipboard"> </g> <g id="clipboard-paste"> </g> <g id="clipboard-copy"> </g> <g id="Layer1"> </g> </g> </g>

</svg>