<?xml version="1.0" standalone="no"?>
<svg xmlns:xlink="http://www.w3.org/1999/xlink" id="wave" style="transform:rotate(0deg); transition: 0.3s" viewBox="0 0 1440 100" version="1.1" xmlns="http://www.w3.org/2000/svg"><defs><linearGradient id="sw-gradient-0" x1="0" x2="0" y1="1" y2="0"><stop stop-color="rgba(50, 149, 157, 1)" offset="0%"/><stop stop-color="rgba(50, 149, 157, 1)" offset="100%"/></linearGradient></defs><path style="transform:translate(0, 0px); opacity:1" fill="url(#sw-gradient-0)" d="M0,10L30,18.3C60,27,120,43,180,53.3C240,63,300,67,360,65C420,63,480,57,540,60C600,63,660,77,720,81.7C780,87,840,83,900,81.7C960,80,1020,80,1080,71.7C1140,63,1200,47,1260,38.3C1320,30,1380,30,1440,26.7C1500,23,1560,17,1620,16.7C1680,17,1740,23,1800,23.3C1860,23,1920,17,1980,20C2040,23,2100,37,2160,50C2220,63,2280,77,2340,76.7C2400,77,2460,63,2520,55C2580,47,2640,43,2700,35C2760,27,2820,13,2880,10C2940,7,3000,13,3060,16.7C3120,20,3180,20,3240,20C3300,20,3360,20,3420,23.3C3480,27,3540,33,3600,41.7C3660,50,3720,60,3780,56.7C3840,53,3900,37,3960,38.3C4020,40,4080,60,4140,71.7C4200,83,4260,87,4290,88.3L4320,90L4320,100L4290,100C4260,100,4200,100,4140,100C4080,100,4020,100,3960,100C3900,100,3840,100,3780,100C3720,100,3660,100,3600,100C3540,100,3480,100,3420,100C3360,100,3300,100,3240,100C3180,100,3120,100,3060,100C3000,100,2940,100,2880,100C2820,100,2760,100,2700,100C2640,100,2580,100,2520,100C2460,100,2400,100,2340,100C2280,100,2220,100,2160,100C2100,100,2040,100,1980,100C1920,100,1860,100,1800,100C1740,100,1680,100,1620,100C1560,100,1500,100,1440,100C1380,100,1320,100,1260,100C1200,100,1140,100,1080,100C1020,100,960,100,900,100C840,100,780,100,720,100C660,100,600,100,540,100C480,100,420,100,360,100C300,100,240,100,180,100C120,100,60,100,30,100L0,100Z"/></svg>