<svg id="wave" style="transform:rotate(0deg); transition: 0.3s" viewBox="0 0 1440 100" version="1.1" xmlns="http://www.w3.org/2000/svg"><defs><linearGradient id="sw-gradient-0" x1="0" x2="0" y1="1" y2="0"><stop stop-color="#455A64" offset="0%"></stop><stop stop-color="#455A64" offset="100%"></stop></linearGradient></defs><path style="transform:translate(0, 0px); opacity:1" fill="url(#sw-gradient-0)" d="M0,10L48,10C96,10,192,10,288,23.3C384,37,480,63,576,63.3C672,63,768,37,864,23.3C960,10,1056,10,1152,23.3C1248,37,1344,63,1440,68.3C1536,73,1632,57,1728,43.3C1824,30,1920,20,2016,23.3C2112,27,2208,43,2304,55C2400,67,2496,73,2592,63.3C2688,53,2784,27,2880,13.3C2976,0,3072,0,3168,6.7C3264,13,3360,27,3456,41.7C3552,57,3648,73,3744,78.3C3840,83,3936,77,4032,75C4128,73,4224,77,4320,80C4416,83,4512,87,4608,80C4704,73,4800,57,4896,45C4992,33,5088,27,5184,31.7C5280,37,5376,53,5472,65C5568,77,5664,83,5760,83.3C5856,83,5952,77,6048,76.7C6144,77,6240,83,6336,73.3C6432,63,6528,37,6624,28.3C6720,20,6816,30,6864,35L6912,40L6912,100L6864,100C6816,100,6720,100,6624,100C6528,100,6432,100,6336,100C6240,100,6144,100,6048,100C5952,100,5856,100,5760,100C5664,100,5568,100,5472,100C5376,100,5280,100,5184,100C5088,100,4992,100,4896,100C4800,100,4704,100,4608,100C4512,100,4416,100,4320,100C4224,100,4128,100,4032,100C3936,100,3840,100,3744,100C3648,100,3552,100,3456,100C3360,100,3264,100,3168,100C3072,100,2976,100,2880,100C2784,100,2688,100,2592,100C2496,100,2400,100,2304,100C2208,100,2112,100,2016,100C1920,100,1824,100,1728,100C1632,100,1536,100,1440,100C1344,100,1248,100,1152,100C1056,100,960,100,864,100C768,100,672,100,576,100C480,100,384,100,288,100C192,100,96,100,48,100L0,100Z"></path></svg>