<?xml version="1.0" standalone="no"?>
<svg xmlns:xlink="http://www.w3.org/1999/xlink" id="wave" style="transform:rotate(0deg); transition: 0.3s" viewBox="0 0 1440 160" version="1.1" xmlns="http://www.w3.org/2000/svg"><defs><linearGradient id="sw-gradient-0" x1="0" x2="0" y1="1" y2="0"><stop stop-color="rgba(255, 255, 255, 1)" offset="0%"/><stop stop-color="rgba(255, 255, 255, 1)" offset="100%"/></linearGradient></defs><path style="transform:translate(0, 0px); opacity:1" fill="url(#sw-gradient-0)" d="M0,64L80,53.3C160,43,320,21,480,32C640,43,800,85,960,88C1120,91,1280,53,1440,34.7C1600,16,1760,16,1920,18.7C2080,21,2240,27,2400,48C2560,69,2720,107,2880,109.3C3040,112,3200,80,3360,74.7C3520,69,3680,91,3840,104C4000,117,4160,123,4320,120C4480,117,4640,107,4800,98.7C4960,91,5120,85,5280,82.7C5440,80,5600,80,5760,66.7C5920,53,6080,27,6240,32C6400,37,6560,75,6720,90.7C6880,107,7040,101,7200,88C7360,75,7520,53,7680,45.3C7840,37,8000,43,8160,45.3C8320,48,8480,48,8640,61.3C8800,75,8960,101,9120,93.3C9280,85,9440,43,9600,21.3C9760,0,9920,0,10080,10.7C10240,21,10400,43,10560,56C10720,69,10880,75,11040,74.7C11200,75,11360,69,11440,66.7L11520,64L11520,160L11440,160C11360,160,11200,160,11040,160C10880,160,10720,160,10560,160C10400,160,10240,160,10080,160C9920,160,9760,160,9600,160C9440,160,9280,160,9120,160C8960,160,8800,160,8640,160C8480,160,8320,160,8160,160C8000,160,7840,160,7680,160C7520,160,7360,160,7200,160C7040,160,6880,160,6720,160C6560,160,6400,160,6240,160C6080,160,5920,160,5760,160C5600,160,5440,160,5280,160C5120,160,4960,160,4800,160C4640,160,4480,160,4320,160C4160,160,4000,160,3840,160C3680,160,3520,160,3360,160C3200,160,3040,160,2880,160C2720,160,2560,160,2400,160C2240,160,2080,160,1920,160C1760,160,1600,160,1440,160C1280,160,1120,160,960,160C800,160,640,160,480,160C320,160,160,160,80,160L0,160Z"/></svg>