<?xml version="1.0" standalone="no"?>
<svg xmlns:xlink="http://www.w3.org/1999/xlink" id="wave" style="transform:rotate(0deg); transition: 0.3s" viewBox="0 0 1440 110" version="1.1" xmlns="http://www.w3.org/2000/svg"><defs><linearGradient id="sw-gradient-0" x1="0" x2="0" y1="1" y2="0"><stop stop-color="rgba(50, 149, 157, 1)" offset="0%"/><stop stop-color="rgba(50, 149, 157, 1)" offset="100%"/></linearGradient></defs><path style="transform:translate(0, 0px); opacity:1" fill="url(#sw-gradient-0)" d="M0,33L60,42.2C120,51,240,70,360,75.2C480,81,600,73,720,66C840,59,960,51,1080,42.2C1200,33,1320,22,1440,29.3C1560,37,1680,62,1800,77C1920,92,2040,95,2160,88C2280,81,2400,62,2520,45.8C2640,29,2760,15,2880,16.5C3000,18,3120,37,3240,53.2C3360,70,3480,84,3600,78.8C3720,73,3840,48,3960,45.8C4080,44,4200,66,4320,67.8C4440,70,4560,51,4680,51.3C4800,51,4920,70,5040,69.7C5160,70,5280,51,5400,38.5C5520,26,5640,18,5760,16.5C5880,15,6000,18,6120,18.3C6240,18,6360,15,6480,22C6600,29,6720,48,6840,51.3C6960,55,7080,44,7200,49.5C7320,55,7440,77,7560,75.2C7680,73,7800,48,7920,33C8040,18,8160,15,8280,18.3C8400,22,8520,33,8580,38.5L8640,44L8640,110L8580,110C8520,110,8400,110,8280,110C8160,110,8040,110,7920,110C7800,110,7680,110,7560,110C7440,110,7320,110,7200,110C7080,110,6960,110,6840,110C6720,110,6600,110,6480,110C6360,110,6240,110,6120,110C6000,110,5880,110,5760,110C5640,110,5520,110,5400,110C5280,110,5160,110,5040,110C4920,110,4800,110,4680,110C4560,110,4440,110,4320,110C4200,110,4080,110,3960,110C3840,110,3720,110,3600,110C3480,110,3360,110,3240,110C3120,110,3000,110,2880,110C2760,110,2640,110,2520,110C2400,110,2280,110,2160,110C2040,110,1920,110,1800,110C1680,110,1560,110,1440,110C1320,110,1200,110,1080,110C960,110,840,110,720,110C600,110,480,110,360,110C240,110,120,110,60,110L0,110Z"/></svg>