<?xml version="1.0" standalone="no"?>
<svg xmlns:xlink="http://www.w3.org/1999/xlink" id="wave" style="transform:rotate(0deg); transition: 0.3s" viewBox="0 0 1440 160" version="1.1" xmlns="http://www.w3.org/2000/svg"><defs><linearGradient id="sw-gradient-0" x1="0" x2="0" y1="1" y2="0"><stop stop-color="rgba(50, 149, 157, 1)" offset="0%"/><stop stop-color="rgba(50, 149, 157, 1)" offset="100%"/></linearGradient></defs><path style="transform:translate(0, 0px); opacity:1" fill="url(#sw-gradient-0)" d="M0,16L120,21.3C240,27,480,37,720,40C960,43,1200,37,1440,42.7C1680,48,1920,64,2160,77.3C2400,91,2640,101,2880,106.7C3120,112,3360,112,3600,98.7C3840,85,4080,59,4320,50.7C4560,43,4800,53,5040,58.7C5280,64,5520,64,5760,64C6000,64,6240,64,6480,64C6720,64,6960,64,7200,72C7440,80,7680,96,7920,90.7C8160,85,8400,59,8640,56C8880,53,9120,75,9360,74.7C9600,75,9840,53,10080,61.3C10320,69,10560,107,10800,120C11040,133,11280,123,11520,104C11760,85,12000,59,12240,45.3C12480,32,12720,32,12960,32C13200,32,13440,32,13680,48C13920,64,14160,96,14400,101.3C14640,107,14880,85,15120,80C15360,75,15600,85,15840,93.3C16080,101,16320,107,16560,93.3C16800,80,17040,48,17160,32L17280,16L17280,160L17160,160C17040,160,16800,160,16560,160C16320,160,16080,160,15840,160C15600,160,15360,160,15120,160C14880,160,14640,160,14400,160C14160,160,13920,160,13680,160C13440,160,13200,160,12960,160C12720,160,12480,160,12240,160C12000,160,11760,160,11520,160C11280,160,11040,160,10800,160C10560,160,10320,160,10080,160C9840,160,9600,160,9360,160C9120,160,8880,160,8640,160C8400,160,8160,160,7920,160C7680,160,7440,160,7200,160C6960,160,6720,160,6480,160C6240,160,6000,160,5760,160C5520,160,5280,160,5040,160C4800,160,4560,160,4320,160C4080,160,3840,160,3600,160C3360,160,3120,160,2880,160C2640,160,2400,160,2160,160C1920,160,1680,160,1440,160C1200,160,960,160,720,160C480,160,240,160,120,160L0,160Z"/></svg>