<?xml version="1.0" standalone="no"?>
<svg xmlns:xlink="http://www.w3.org/1999/xlink" id="wave" style="transform:rotate(0deg); transition: 0.3s" viewBox="0 0 1440 160" version="1.1" xmlns="http://www.w3.org/2000/svg"><defs><linearGradient id="sw-gradient-0" x1="0" x2="0" y1="1" y2="0"><stop stop-color="rgba(255, 255, 255, 1)" offset="0%"/><stop stop-color="rgba(255, 255, 255, 1)" offset="100%"/></linearGradient></defs><path style="transform:translate(0, 0px); opacity:1" fill="url(#sw-gradient-0)" d="M0,144L48,125.3C96,107,192,69,288,53.3C384,37,480,43,576,61.3C672,80,768,112,864,109.3C960,107,1056,69,1152,61.3C1248,53,1344,75,1440,72C1536,69,1632,43,1728,32C1824,21,1920,27,2016,37.3C2112,48,2208,64,2304,66.7C2400,69,2496,59,2592,56C2688,53,2784,59,2880,53.3C2976,48,3072,32,3168,24C3264,16,3360,16,3456,32C3552,48,3648,80,3744,90.7C3840,101,3936,91,4032,85.3C4128,80,4224,80,4320,77.3C4416,75,4512,69,4608,80C4704,91,4800,117,4896,120C4992,123,5088,101,5184,93.3C5280,85,5376,91,5472,88C5568,85,5664,75,5760,69.3C5856,64,5952,64,6048,64C6144,64,6240,64,6336,77.3C6432,91,6528,117,6624,112C6720,107,6816,69,6864,50.7L6912,32L6912,160L6864,160C6816,160,6720,160,6624,160C6528,160,6432,160,6336,160C6240,160,6144,160,6048,160C5952,160,5856,160,5760,160C5664,160,5568,160,5472,160C5376,160,5280,160,5184,160C5088,160,4992,160,4896,160C4800,160,4704,160,4608,160C4512,160,4416,160,4320,160C4224,160,4128,160,4032,160C3936,160,3840,160,3744,160C3648,160,3552,160,3456,160C3360,160,3264,160,3168,160C3072,160,2976,160,2880,160C2784,160,2688,160,2592,160C2496,160,2400,160,2304,160C2208,160,2112,160,2016,160C1920,160,1824,160,1728,160C1632,160,1536,160,1440,160C1344,160,1248,160,1152,160C1056,160,960,160,864,160C768,160,672,160,576,160C480,160,384,160,288,160C192,160,96,160,48,160L0,160Z"/></svg>