<svg width="100%" height="100%" id="svg" viewBox="0 0 1440 390" xmlns="http://www.w3.org/2000/svg" class="transition duration-300 ease-in-out delay-150"><path d="M 0,400 L 0,100 C 81.14285714285714,125.64285714285714 162.28571428571428,151.28571428571428 305,141 C 447.7142857142857,130.71428571428572 652,84.5 787,86 C 922,87.5 987.7142857142858,136.7142857142857 1085,147 C 1182.2857142857142,157.2857142857143 1311.142857142857,128.64285714285717 1440,100 L 1440,400 L 0,400 Z" stroke="none" stroke-width="0" fill="#32959d" fill-opacity="0.53" class="transition-all duration-300 ease-in-out delay-150 path-0"></path><path d="M 0,400 L 0,233 C 102.64285714285714,250.21428571428572 205.28571428571428,267.42857142857144 323,272 C 440.7142857142857,276.57142857142856 573.4999999999999,268.5 691,259 C 808.5000000000001,249.49999999999997 910.7142857142858,238.57142857142856 1033,234 C 1155.2857142857142,229.42857142857144 1297.642857142857,231.21428571428572 1440,233 L 1440,400 L 0,400 Z" stroke="none" stroke-width="0" fill="#32959d" fill-opacity="1" class="transition-all duration-300 ease-in-out delay-150 path-1"></path></svg>